{"accessors":{"accessor_100":{"bufferView":"bufferView_207","byteOffset":950616,"byteStride":8,"componentType":5126,"count":449,"max":[0.875,1],"min":[0.125,0],"type":"VEC2"},"accessor_102":{"bufferView":"bufferView_207","byteOffset":954208,"byteStride":16,"componentType":5126,"count":449,"max":[255,255,255,255],"min":[255,255,255,255],"type":"VEC4"},"accessor_128":{"bufferView":"bufferView_206","byteOffset":138360,"byteStride":0,"componentType":5123,"count":14568,"type":"SCALAR"},"accessor_130":{"bufferView":"bufferView_207","byteOffset":961392,"byteStride":12,"componentType":5126,"count":4727,"max":[31.0352,-1.72187,19.4449],"min":[-29.534,-5.97305,0.672344],"type":"VEC3"},"accessor_132":{"bufferView":"bufferView_207","byteOffset":1018116,"byteStride":12,"componentType":5126,"count":4727,"max":[1,1,1],"min":[-1,-1,-1],"type":"VEC3"},"accessor_134":{"bufferView":"bufferView_207","byteOffset":1074840,"byteStride":8,"componentType":5126,"count":4727,"max":[0.875,1],"min":[0.125,0],"type":"VEC2"},"accessor_136":{"bufferView":"bufferView_207","byteOffset":1112656,"byteStride":16,"componentType":5126,"count":4727,"max":[255,255,255,255],"min":[255,255,255,255],"type":"VEC4"},"accessor_162":{"bufferView":"bufferView_206","byteOffset":167496,"byteStride":0,"componentType":5123,"count":24000,"type":"SCALAR"},"accessor_164":{"bufferView":"bufferView_207","byteOffset":1188288,"byteStride":12,"componentType":5126,"count":4890,"max":[30.8094,-0.734435,5.99102],"min":[-30.6239,-62.2212,-0.305395],"type":"VEC3"},"accessor_166":{"bufferView":"bufferView_207","byteOffset":1246968,"byteStride":12,"componentType":5126,"count":4890,"max":[0.995374,0.966044,0.966046],"min":[-0.995374,-0.966051,-0.966045],"type":"VEC3"},"accessor_168":{"bufferView":"bufferView_207","byteOffset":1305648,"byteStride":8,"componentType":5126,"count":4890,"max":[1,1],"min":[0,0],"type":"VEC2"},"accessor_170":{"bufferView":"bufferView_207","byteOffset":1344768,"byteStride":16,"componentType":5126,"count":4890,"max":[255,255,255,255],"min":[255,255,255,255],"type":"VEC4"},"accessor_196":{"bufferView":"bufferView_206","byteOffset":215496,"byteStride":0,"componentType":5123,"count":3612,"type":"SCALAR"},"accessor_198":{"bufferView":"bufferView_207","byteOffset":1423008,"byteStride":12,"componentType":5126,"count":1134,"max":[1.0297,-56.9127,13.2917],"min":[-1.14622,-61.1639,0.672344],"type":"VEC3"},"accessor_200":{"bufferView":"bufferView_207","byteOffset":1436616,"byteStride":12,"componentType":5126,"count":1134,"max":[1,1,1],"min":[-1,-1,-1],"type":"VEC3"},"accessor_202":{"bufferView":"bufferView_207","byteOffset":1450224,"byteStride":8,"componentType":5126,"count":1134,"max":[0.875,1],"min":[0.125,0],"type":"VEC2"},"accessor_204":{"bufferView":"bufferView_207","byteOffset":1459296,"byteStride":16,"componentType":5126,"count":1134,"max":[255,255,255,255],"min":[255,255,255,255],"type":"VEC4"},"accessor_26":{"bufferView":"bufferView_206","byteOffset":0,"byteStride":0,"componentType":5123,"count":2160,"type":"SCALAR"},"accessor_28":{"bufferView":"bufferView_207","byteOffset":0,"byteStride":12,"componentType":5126,"count":887,"max":[29.1524,-2.92283,19.6209],"min":[-28.9295,-4.66667,10.3885],"type":"VEC3"},"accessor_30":{"bufferView":"bufferView_207","byteOffset":10644,"byteStride":12,"componentType":5126,"count":887,"max":[0.921028,0.990704,0.912458],"min":[-0.921029,-0.990705,-0.912458],"type":"VEC3"},"accessor_32":{"bufferView":"bufferView_207","byteOffset":21288,"byteStride":8,"componentType":5126,"count":887,"max":[0.65625,1],"min":[0.34375,0],"type":"VEC2"},"accessor_34":{"bufferView":"bufferView_207","byteOffset":28384,"byteStride":16,"componentType":5126,"count":887,"max":[255,255,255,255],"min":[255,255,255,255],"type":"VEC4"},"accessor_60":{"bufferView":"bufferView_206","byteOffset":4320,"byteStride":0,"componentType":5123,"count":66012,"type":"SCALAR"},"accessor_62":{"bufferView":"bufferView_207","byteOffset":42576,"byteStride":12,"componentType":5126,"count":18693,"max":[208.685,94.4545,74.34],"min":[-208.767,-110.725,7.64844],"type":"VEC3"},"accessor_64":{"bufferView":"bufferView_207","byteOffset":266892,"byteStride":12,"componentType":5126,"count":18693,"max":[1,1,1],"min":[-1,-1,-1],"type":"VEC3"},"accessor_66":{"bufferView":"bufferView_207","byteOffset":491208,"byteStride":8,"componentType":5126,"count":18693,"max":[0.9591,0.998008],"min":[0.001914,0.00199199],"type":"VEC2"},"accessor_68":{"bufferView":"bufferView_207","byteOffset":640752,"byteStride":16,"componentType":5126,"count":18693,"max":[255,255,255,255],"min":[255,255,255,255],"type":"VEC4"},"accessor_94":{"bufferView":"bufferView_206","byteOffset":136344,"byteStride":0,"componentType":5123,"count":1008,"type":"SCALAR"},"accessor_96":{"bufferView":"bufferView_207","byteOffset":939840,"byteStride":12,"componentType":5126,"count":449,"max":[37.4299,2.71125,22.3941],"min":[-37.5098,-73.6369,5.11617],"type":"VEC3"},"accessor_98":{"bufferView":"bufferView_207","byteOffset":945228,"byteStride":12,"componentType":5126,"count":449,"max":[0.997277,1,0.968663],"min":[-0.997277,-1,-0.968663],"type":"VEC3"}},"animations":{},"asset":{"generator":"collada2gltf@","premultipliedAlpha":true,"profile":"WebGL 1.0.2","version":0.8},"bufferViews":{"bufferView_206":{"buffer":"model","byteLength":222720,"byteOffset":0,"target":34963},"bufferView_207":{"buffer":"model","byteLength":1477440,"byteOffset":222720,"target":34962}},"buffers":{"model":{"byteLength":1700160,"type":"arraybuffer","uri":"data:application/octet-stream;base64,"}},"materials":{"material_1_effect":{"instanceTechnique":{"technique":"technique0","values":{"ambient":[0.709804,0.709804,0.709804,1],"diffuse":[0.709804,0.709804,0.709804,1],"emission":[0,0,0,1],"shininess":38.4,"specular":[0.498039,0.498039,0.498039,1]}},"name":"material_1"},"material_2_effect":{"instanceTechnique":{"technique":"technique0","values":{"ambient":[0.709804,0.709804,0.709804,1],"diffuse":[0.709804,0.709804,0.709804,1],"emission":[0,0,0,1],"shininess":38.4,"specular":[0.498039,0.498039,0.498039,1]}},"name":"material_2"},"material_3_effect":{"instanceTechnique":{"technique":"technique0","values":{"ambient":[0.709804,0.709804,0.709804,1],"diffuse":[0.709804,0.709804,0.709804,1],"emission":[0,0,0,1],"shininess":38.4,"specular":[0.498039,0.498039,0.498039,1]}},"name":"material_3"},"material_4_effect":{"instanceTechnique":{"technique":"technique0","values":{"ambient":[0.14902,0.14902,0.14902,1],"diffuse":[0.14902,0.14902,0.14902,1],"emission":[0,0,0,1],"shininess":38.4,"specular":[0,0,0,0]}},"name":"material_4"},"material_5_effect":{"instanceTechnique":{"technique":"technique0","values":{"ambient":[0.498039,0.498039,0.498039,1],"diffuse":[0.498039,0.498039,0.498039,1],"emission":[0,0,0,1],"shininess":38.4,"specular":[0,0,0,0]}},"name":"material_5"},"material_effect":{"instanceTechnique":{"technique":"technique0","values":{"ambient":[0.568627,0,0,1],"diffuse":[0.568627,0,0,1],"emission":[0,0,0,1],"shininess":38.4,"specular":[0,0,0,0]}},"name":"material"}},"meshes":{"polySurfac":{"name":"polySurfac","primitives":[{"attributes":{"COLOR_0":"accessor_34","NORMAL":"accessor_30","POSITION":"accessor_28","TEXCOORD_0":"accessor_32"},"indices":"accessor_26","material":"material_effect","primitive":4}]},"polySurfac_1":{"name":"polySurfac_1","primitives":[{"attributes":{"COLOR_0":"accessor_68","NORMAL":"accessor_64","POSITION":"accessor_62","TEXCOORD_0":"accessor_66"},"indices":"accessor_60","material":"material_1_effect","primitive":4}]},"polySurfac_2":{"name":"polySurfac_2","primitives":[{"attributes":{"COLOR_0":"accessor_102","NORMAL":"accessor_98","POSITION":"accessor_96","TEXCOORD_0":"accessor_100"},"indices":"accessor_94","material":"material_2_effect","primitive":4}]},"polySurfac_3":{"name":"polySurfac_3","primitives":[{"attributes":{"COLOR_0":"accessor_136","NORMAL":"accessor_132","POSITION":"accessor_130","TEXCOORD_0":"accessor_134"},"indices":"accessor_128","material":"material_3_effect","primitive":4}]},"polySurfac_4":{"name":"polySurfac_4","primitives":[{"attributes":{"COLOR_0":"accessor_170","NORMAL":"accessor_166","POSITION":"accessor_164","TEXCOORD_0":"accessor_168"},"indices":"accessor_162","material":"material_4_effect","primitive":4}]},"polySurfac_5":{"name":"polySurfac_5","primitives":[{"attributes":{"COLOR_0":"accessor_204","NORMAL":"accessor_200","POSITION":"accessor_198","TEXCOORD_0":"accessor_202"},"indices":"accessor_196","material":"material_5_effect","primitive":4}]}},"nodes":{"Camera01":{"children":[],"matrix":[1,0,0,0,0,1,0,0,0,0,1,0,-232.101,-138.633,61.6317,1],"name":"Camera01"},"Camera01_1":{"children":[],"matrix":[1,0,0,0,0,1,0,0,0,0,1,0,-142.409,-87.8884,49.8904,1],"name":"Camera01_1"},"group":{"children":["group_1"],"matrix":[1,0,0,0,0,1,0,0,0,0,1,0,0,0,0,1],"name":"group"},"group_1":{"children":["Camera01","Camera01_1"],"matrix":[1,0,0,0,0,1,0,0,0,0,1,0,0,0,0,1],"meshes":["polySurfac","polySurfac_1","polySurfac_2","polySurfac_3","polySurfac_4","polySurfac_5"],"name":"group_1"},"node_5":{"children":["sceneRoot"],"matrix":[0,0,-1,0,-1,0,0,0,0,1,0,0,0,0,0,1],"name":"Y_UP_Transform"},"sceneRoot":{"children":["group"],"matrix":[1,0,0,0,0,1,0,0,0,0,1,0,0,0,0,1],"name":"sceneRoot"}},"programs":{"program_0":{"attributes":["a_normal","a_position"],"fragmentShader":"model0FS","vertexShader":"model0VS"}},"scene":"defaultScene","scenes":{"defaultScene":{"nodes":["node_5"]}},"shaders":{"model0FS":{"type":35632,"uri":"data:text/plain;base64,"},"model0VS":{"type":35633,"uri":"data:text/plain;base64,"}},"skins":{},"techniques":{"technique0":{"parameters":{"ambient":{"type":35666},"diffuse":{"type":35666},"emission":{"type":35666},"modelViewMatrix":{"semantic":"MODELVIEW","type":35676},"normal":{"semantic":"NORMAL","type":35665},"normalMatrix":{"semantic":"MODELVIEWINVERSETRANSPOSE","type":35675},"position":{"semantic":"POSITION","type":35665},"projectionMatrix":{"semantic":"PROJECTION","type":35676},"shininess":{"type":5126},"specular":{"type":35666}},"pass":"defaultPass","passes":{"defaultPass":{"details":{"commonProfile":{"extras":{"doubleSided":false},"lightingModel":"Phong","parameters":["ambient","diffuse","emission","modelViewMatrix","normalMatrix","projectionMatrix","shininess","specular"]},"type":"COLLADA-1.4.1/commonProfile"},"instanceProgram":{"attributes":{"a_normal":"normal","a_position":"position"},"program":"program_0","uniforms":{"u_ambient":"ambient","u_diffuse":"diffuse","u_emission":"emission","u_modelViewMatrix":"modelViewMatrix","u_normalMatrix":"normalMatrix","u_projectionMatrix":"projectionMatrix","u_shininess":"shininess","u_specular":"specular"}},"states":{"enable":[2884,2929]}}}}}}
